<svg id="Layer_1" data-name="Layer 1" xmlns="http://www.w3.org/2000/svg" viewBox="200 420 680 200"><defs><style>.cls-1{fill:#386FDC;}</style></defs><path class="cls-1" d="M304.23,462.15A77.85,77.85,0,1,0,382.08,540,77.84,77.84,0,0,0,304.23,462.15Zm0,146.63A68.79,68.79,0,1,1,373,540,68.78,68.78,0,0,1,304.23,608.78Z"/><path class="cls-1" d="M360,543.39l-.85-1.27L341.33,515.9h0a20,20,0,0,0-16.48-10.33h0l-1.06,0a20.06,20.06,0,0,0-18.86,13.23c-.18.53-.36,1.06-.5,1.61a20,20,0,0,0-18.36-14.81l-1,0c-.33,0-.64,0-1,0a20,20,0,0,0-16.34,9.88l-10.62,15.93-7.54,10.41-.61.85a20.29,20.29,0,0,0,1.78,25.25l.51.54.55.52a20.14,20.14,0,0,0,2.32,1.89q.61.43,1.26.81c.43.26.88.5,1.33.72s.91.44,1.38.62,1,.37,1.44.52l.57.18.27.07c.45.12.91.23,1.37.32l.87.16.71.09.67.07.94.05.77,0h0c.35,0,.69,0,1,0l.51,0,.38,0,.4,0c.26,0,.52-.05.77-.09l.49-.09a18.53,18.53,0,0,0,2.47-.6l.45-.15a13.71,13.71,0,0,0,1.39-.53l.42-.18.48-.22.44-.23a3.61,3.61,0,0,0,.44-.22l.4-.22.07,0c.27-.15.53-.32.79-.48s.55-.36.81-.55l.79-.58c.25-.21.51-.41.75-.62s.71-.65,1-1,.68-.7,1-1.08h0l.62-.75.3-.39.39-.55c.19-.28.38-.56.56-.84l.26-.43c.26-.44.5-.89.73-1.34.15-.3.29-.61.42-.92s.18-.42.26-.63.25-.61.35-.91a20.32,20.32,0,0,0,38.24.67c.09-.22.17-.45.24-.68a20.21,20.21,0,0,0,1.27,2.94h0l2.3,3.44a20.32,20.32,0,0,0,34.78-6A20.3,20.3,0,0,0,360,543.39Zm-55.73,22.78a12,12,0,0,1-10.62-6.4,11,11,0,0,1-.8-1.86,9,9,0,0,0-6.76-4.48h0a8.06,8.06,0,0,0-2.12,0,9,9,0,0,0-6.76,4.48h0c0,.07-.05.14-.08.22s-.15.41-.23.61-.07.17-.11.25a3.73,3.73,0,0,1-.16.35c-.07.14-.14.28-.22.42h0l-.05.09c-.09.17-.19.34-.29.5s-.2.33-.31.49-.21.31-.33.47-.24.31-.37.46a5.07,5.07,0,0,1-.37.44c-.25.28-.52.54-.8.8s-.3.27-.46.39l-.45.36-.35.25a8.57,8.57,0,0,1-1.12.68,4.82,4.82,0,0,1-.5.27h0a10,10,0,0,1-1.08.46h0l-.53.18-.57.16a5.43,5.43,0,0,1-.58.13h0a5.4,5.4,0,0,1-.58.11l-.54.07-.68,0-.6,0a12,12,0,0,1-3.57-.54c-.31-.1-.61-.2-.91-.32s-.58-.25-.86-.39h0c-.28-.14-.55-.29-.82-.46h0a10.85,10.85,0,0,1-1.26-.87,12,12,0,0,1-4.59-9.45,11.79,11.79,0,0,1,.68-4l0,0,3.27-4.91,7.59-11.38.94-1.42,8.35-12.52h0a11.69,11.69,0,0,1,1.18-1.78,11.95,11.95,0,0,1,18.86.31l0,0a10.55,10.55,0,0,1,.69,1.05l8.59,12.89,1,1.46,7.93,11.89h0a12,12,0,0,1,2.49,3.73h0a11.88,11.88,0,0,1,.95,4.67A12,12,0,0,1,304.24,566.17Zm50.36-11.64a11.9,11.9,0,0,1-15.77,10.84,11.68,11.68,0,0,1-4.7-3,8,8,0,0,1-.67-.75l0,0h0a11.41,11.41,0,0,1-1.13-1.7l0,0a5.59,5.59,0,0,1-.3-.6l-17.43-25.34a11.54,11.54,0,0,1-2.29-3.34,10.82,10.82,0,0,1-.64-1.7,12.11,12.11,0,0,1-.44-2.84v-.41a11.88,11.88,0,0,1,20.67-8,12.07,12.07,0,0,1,1.8,2.62L351.42,546a11.44,11.44,0,0,1,2,2.88,11.69,11.69,0,0,1,1.21,5.22C354.61,554.27,354.61,554.4,354.6,554.53Z"/><path class="cls-1" d="M413.6,507.92H425l15.53,39.78c1.18,3,3.17,9.23,4.65,14.35,1.48-4.95,3.43-11.17,4.66-14.35l15.32-39.78h11.46V571h-7.91V535c0-4.65.13-11.89.3-18.45-2.29,7.2-4.91,14.77-6.35,18.45L448.6,571h-7l-14.31-36c-1.39-3.55-3.85-10.91-6.34-18.32.12,6,.29,13.46.29,18.32v36H413.6Z"/><path class="cls-1" d="M486.94,547.7c0-14.51,8.38-24.63,21.29-24.63,10,0,20.61,6.18,20.61,23.66v3.17H494.65c.38,9.9,6.13,15.32,14.51,15.32,5.59,0,9.78-2.45,11.55-7.28l7.37,2c-2.2,7.16-9.27,12-19,12C495.41,572,486.94,562.26,486.94,547.7Zm34.16-4.23c-.72-8-5.08-13.63-12.87-13.63-8.12,0-13.08,6.39-13.54,13.63Z"/><path class="cls-1" d="M556.65,530.18h-9.74V558.7c0,4.24,1.57,6.1,5.59,6.1a24.5,24.5,0,0,0,3.89-.51l1.57,6.43a18.39,18.39,0,0,1-5.67.85c-8.17,0-13-4.53-13-12.27V530.18h-7.11v-6.51h7.11V512.41h7.61v11.26h9.74Z"/><path class="cls-1" d="M562.19,557.52c0-10.83,9.65-12.82,18.41-13.92,8.42-1.06,12.14-.81,12.14-4.32V539c0-5.89-3.34-9.27-9.9-9.27-6.81,0-10.49,3.64-12,6.94l-7.32-2.41c3.64-8.59,11.76-11.22,19.08-11.22,6.35,0,17.73,1.95,17.73,16.72V571h-7.49v-6.44h-.51c-1.6,3.35-6.05,7.54-14,7.54C569.34,572.08,562.19,566.83,562.19,557.52Zm30.55-3.64v-6.56c-1.26,1.48-9.56,2.33-12.48,2.71-5.54.72-10.41,2.5-10.41,7.87,0,4.91,4.11,7.45,9.78,7.45C588.05,565.35,592.74,559.68,592.74,553.88Z"/><path class="cls-1" d="M603.12,507.92h8.21l10,38.68c1.36,5.42,2.58,11,3.73,16.89,1.14-5.93,2.37-11.47,3.81-16.89L639,507.92h9.14L658.3,546.6c1.39,5.33,2.66,10.79,3.85,16.63,1.1-5.84,2.37-11.3,3.72-16.63l10-38.68h8.29L666.85,571h-9.36l-10.83-40c-1.1-4-2.11-8.46-3.09-14-.93,5.16-1.86,9.44-3.09,14l-10.79,40H620.3Z"/><path class="cls-1" d="M691.27,553.71v-30h7.62v29.41c0,7.27,4.1,11.63,10.7,11.63,6.77,0,11.89-4.61,11.89-12.69V523.67h7.66V571h-7.36v-8.85c-3.09,6.9-8.25,9.44-14.47,9.44C697.74,571.57,691.27,565.69,691.27,553.71Z"/><path class="cls-1" d="M740.79,523.67h7.36v7.27h.51c1.73-4.78,6.64-8,12.27-8,1.1,0,3,.08,3.85.13v7.65a29.45,29.45,0,0,0-4.57-.42c-6.81,0-11.81,4.61-11.81,11V571h-7.61Z"/><path class="cls-1" d="M773,507.92h7.61v36.61h.93l20.23-20.86h9.44L791.44,544l21.29,27H803l-17.3-22.14-5,4.7V571H773Z"/><path class="cls-1" d="M816.75,559.51l7.24-1.74c1.35,5.21,5.21,7.54,10.88,7.54,6.6,0,10.83-3.26,10.83-7.16,0-3.25-2.29-5.41-6.94-6.51l-7.87-1.86c-8.59-2-12.7-6.27-12.7-12.91,0-8.13,7.45-13.8,17.52-13.8,9.74,0,14.86,4.74,17,11.39l-6.89,1.77c-1.32-3.38-4-6.68-10.08-6.68-5.62,0-9.86,2.92-9.86,6.85,0,3.52,2.42,5.46,8,6.77l7.15,1.7c8.59,2,12.61,6.3,12.61,12.78C853.61,565.94,846,572,835,572,825.22,572,818.45,567.68,816.75,559.51Z"/></svg>
